# xmcd
#
# Track frame offsets: 
#        150
#        23470
#        46212
#        63009
#        79192
#        99994
#        132273
#        151861
#        168339
#        180923
#        202746
#        223292
#        240070
#        261778
#        286726
#
# Disc length: 4280 seconds
#
# Revision: 1
# Processed by: cddbd v1.5.1PL0 Copyright (c) Steve Scherf et al.
# Submitted via: ExactAudioCopy v0.95a5
#
DISCID=ae10b60f
DTITLE=Various Artist - Cassagrande Lounge vol.III CD2
DYEAR=2003
DGENRE=Ambient
TTITLE0=Sounds From The Ground - Shine 
TTITLE1=Max Sedgley - Slowly
TTITLE2=Christophe Goze - Pleine Lune
TTITLE3=Emmanuel Santarromana - We Can Work It Out
TTITLE4=Groove Lickers - Mr. Feel Good (Germaunge Mix)
TTITLE5=Lazy Grace - How Deep Is Your Love
TTITLE6=Urban Chill - Saint Maurice
TTITLE7=Monorama feat. Annamaria Di Marco - L'Ombre Et Le Diable
TTITLE8=Astor Piazzola - Libertango
TTITLE9=Mystic Diversions - Qawsalla
TTITLE10=Riccardo Eberspacher - Maria
TTITLE11=Alexkid - Fear In Flight
TTITLE12=Sure Plasure - My God
TTITLE13=Emotional - Make You Mine (Soulsession Mix)
TTITLE14=Gaia Project - Caravan
EXTD=
EXTT0=
EXTT1=
EXTT2=
EXTT3=
EXTT4=
EXTT5=
EXTT6=
EXTT7=
EXTT8=
EXTT9=
EXTT10=
EXTT11=
EXTT12=
EXTT13=
EXTT14=
PLAYORDER=
